<svg width="58" height="57" viewBox="0 0 58 57" fill="none" xmlns="http://www.w3.org/2000/svg">
<path d="M0 0V3.35294H20.8118L23.8824 8.38235C20.2235 8.38235 19.3511 8.38235 15.3529 8.38235V15.0882H42.6471V8.38235H34.1176L37.1882 3.35294H58V0H0Z" fill="#F00002"/>
<path d="M43.3536 41.9118H34.1176V39.3645L42.647 32.6586V18.4412H39.2353V31.0472L34.1176 35.0708V28.5H30.7059V24.9349C33.6457 24.1886 35.8235 21.5602 35.8235 18.4412H22.1764C22.1764 21.5601 24.3543 24.1886 27.2941 24.9349V28.5H23.8823V35.0708L18.7647 31.0472V18.4412H15.3529V32.6586L23.8823 39.3645V41.9118H14.6462L10.7349 45.7558L13.1473 48.1267L16.0595 45.2647H23.8823V48.6176H34.1176V45.2647H41.9405L44.8525 48.1267L47.265 45.7558L43.3536 41.9118Z" fill="#F00002"/>
<path d="M8.52936 51.9706H11.9411V55.3235H8.52936V51.9706Z" fill="#F00002"/>
<path d="M27.2941 53.647H30.7059V57H27.2941V53.647Z" fill="#F00002"/>
<path d="M46.0587 51.9706H49.4705V55.3235H46.0587V51.9706Z" fill="#F00002"/>
<path d="M37.5294 53.647H40.9411V57H37.5294V53.647Z" fill="#F00002"/>
<path d="M17.0589 53.647H20.4707V57H17.0589V53.647Z" fill="#F00002"/>
</svg>
