<svg width="36" height="36" viewBox="0 0 36 36" fill="none" xmlns="http://www.w3.org/2000/svg">
<path d="M35.5044 17.9998C35.5044 8.33374 27.6704 0.499756 18.0044 0.499756C8.33838 0.499756 0.504395 8.33374 0.504395 17.9998C0.504395 27.6658 8.33838 35.4998 18.0044 35.4998C18.1069 35.4998 18.2095 35.4998 18.312 35.4929V21.8757H14.5522V17.4939H18.312V14.2673C18.312 10.5281 20.5952 8.49097 23.9312 8.49097C25.5308 8.49097 26.9048 8.60718 27.3013 8.66187V12.572H25.0044C23.1929 12.572 22.8374 13.4333 22.8374 14.698V17.4871H27.1782L26.6108 21.8689H22.8374V34.823C30.1519 32.7244 35.5044 25.991 35.5044 17.9998Z" fill="#FFC600"/>
</svg>
