<svg width="36" height="36" viewBox="0 0 36 36" fill="none" xmlns="http://www.w3.org/2000/svg">
<path d="M21.3452 17.9999C21.3452 19.8499 19.8456 21.3495 17.9956 21.3495C16.1456 21.3495 14.646 19.8499 14.646 17.9999C14.646 16.1499 16.1456 14.6503 17.9956 14.6503C19.8456 14.6503 21.3452 16.1499 21.3452 17.9999Z" fill="#FFC600"/>
<path d="M25.8291 12.0734C25.6681 11.6371 25.4112 11.2421 25.0774 10.918C24.7533 10.5842 24.3586 10.3273 23.922 10.1663C23.5679 10.0287 23.036 9.86506 22.0563 9.82047C20.9964 9.77213 20.6787 9.76172 17.9956 9.76172C15.3122 9.76172 14.9944 9.77187 13.9349 9.8202C12.9551 9.86506 12.423 10.0287 12.0691 10.1663C11.6325 10.3273 11.2376 10.5842 10.9137 10.918C10.5799 11.2421 10.323 11.6368 10.1618 12.0734C10.0242 12.4275 9.86054 12.9597 9.81595 13.9394C9.76762 14.999 9.7572 15.3167 9.7572 18.0001C9.7572 20.6832 9.76762 21.001 9.81595 22.0608C9.86054 23.0405 10.0242 23.5725 10.1618 23.9265C10.323 24.3631 10.5797 24.7578 10.9134 25.082C11.2376 25.4158 11.6323 25.6726 12.0689 25.8337C12.423 25.9714 12.9551 26.1351 13.9349 26.1797C14.9944 26.2281 15.3119 26.2382 17.9953 26.2382C20.6789 26.2382 20.9967 26.2281 22.056 26.1797C23.0357 26.1351 23.5679 25.9714 23.922 25.8337C24.7984 25.4956 25.4911 24.8029 25.8291 23.9265C25.9667 23.5725 26.1303 23.0405 26.1752 22.0608C26.2235 21.001 26.2337 20.6832 26.2337 18.0001C26.2337 15.3167 26.2235 14.999 26.1752 13.9394C26.1306 12.9597 25.9669 12.4275 25.8291 12.0734ZM17.9956 23.1599C15.1456 23.1599 12.8352 20.8498 12.8352 17.9998C12.8352 15.1498 15.1456 12.8398 17.9956 12.8398C20.8453 12.8398 23.1556 15.1498 23.1556 17.9998C23.1556 20.8498 20.8453 23.1599 17.9956 23.1599ZM23.3597 13.8417C22.6937 13.8417 22.1537 13.3017 22.1537 12.6358C22.1537 11.9698 22.6937 11.4298 23.3597 11.4298C24.0256 11.4298 24.5656 11.9698 24.5656 12.6358C24.5653 13.3017 24.0256 13.8417 23.3597 13.8417Z" fill="#FFC600"/>
<path d="M17.9956 0.499756C8.3321 0.499756 0.495605 8.33625 0.495605 17.9998C0.495605 27.6633 8.3321 35.4998 17.9956 35.4998C27.6591 35.4998 35.4956 27.6633 35.4956 17.9998C35.4956 8.33625 27.6591 0.499756 17.9956 0.499756ZM27.9838 22.1427C27.9352 23.2124 27.7651 23.9427 27.5168 24.582C26.9947 25.9318 25.9277 26.9989 24.5779 27.5209C23.9389 27.7693 23.2083 27.9391 22.1388 27.988C21.0672 28.0368 20.7249 28.0486 17.9959 28.0486C15.2666 28.0486 14.9245 28.0368 13.8527 27.988C12.7832 27.9391 12.0526 27.7693 11.4136 27.5209C10.7428 27.2686 10.1356 26.8731 9.6336 26.3618C9.12251 25.86 8.72704 25.2525 8.47469 24.582C8.22636 23.943 8.05626 23.2124 8.00766 22.143C7.95826 21.0711 7.94678 20.7288 7.94678 17.9998C7.94678 15.2707 7.95826 14.9284 8.00739 13.8568C8.05599 12.7871 8.22582 12.0568 8.47416 11.4175C8.7265 10.747 9.12224 10.1395 9.6336 9.63775C10.1353 9.12639 10.7428 8.73092 11.4133 8.47858C12.0526 8.23024 12.7829 8.06041 13.8527 8.01154C14.9242 7.96268 15.2666 7.95093 17.9956 7.95093C20.7246 7.95093 21.067 7.96268 22.1386 8.01181C23.2083 8.06041 23.9386 8.23024 24.5779 8.47831C25.2484 8.73065 25.8559 9.12639 26.3579 9.63775C26.869 10.1398 27.2647 10.747 27.5168 11.4175C27.7654 12.0568 27.9352 12.7871 27.9841 13.8568C28.033 14.9284 28.0444 15.2707 28.0444 17.9998C28.0444 20.7288 28.033 21.0711 27.9838 22.1427Z" fill="#FFC600"/>
</svg>
