<svg width="15" height="21" viewBox="0 0 15 21" fill="none" xmlns="http://www.w3.org/2000/svg">
<path d="M0.333374 7.57153C0.333374 11.4382 7.33337 19.9049 7.33337 19.9049C7.33337 19.9049 14.3334 11.4382 14.3334 7.57153C14.3334 3.70553 11.1994 0.571533 7.33337 0.571533C3.46737 0.571533 0.333374 3.70553 0.333374 7.57153ZM7.33337 3.2382L11.6667 6.57153H10.3334V10.5715H4.33337V6.57153H3.00004L7.33337 3.2382Z" fill="#FFC600"/>
<path d="M4.33333 10.5715H6.33333V7.90483H8.33333V10.5715H10.3333V6.57149H11.6667L7.33333 3.23816L3 6.57149H4.33333V10.5715Z" fill="#F00002"/>
<path d="M6.33337 7.90479H8.33337V10.5715H6.33337V7.90479Z" fill="#BDDBFF"/>
<path d="M7.33333 20.2382C7.23392 20.2382 7.13967 20.1938 7.07633 20.1172C6.78733 19.7678 0 11.5122 0 7.57149C0 3.52141 3.28325 0.238159 7.33333 0.238159C11.3834 0.238159 14.6667 3.52141 14.6667 7.57149C14.6667 11.5122 7.87933 19.7678 7.59033 20.1172C7.527 20.1938 7.43275 20.2382 7.33333 20.2382ZM7.33333 0.904826C3.65317 0.909034 0.670875 3.89133 0.666667 7.57149C0.666667 10.8622 6.079 17.8095 7.33333 19.3752C8.58767 17.8092 14 10.8615 14 7.57149C13.9958 3.89133 11.0135 0.909034 7.33333 0.904826Z" fill="#231F20"/>
<path d="M11.87 6.30755L7.53671 2.97422C7.41683 2.88197 7.24991 2.88197 7.13004 2.97422L2.79671 6.30755C2.65091 6.41993 2.62383 6.62926 2.73621 6.77505C2.79929 6.85688 2.89671 6.90484 3.00004 6.90488H4.00004V10.5716C4.00004 10.7556 4.14929 10.9049 4.33337 10.9049H10.3334C10.5175 10.9049 10.6667 10.7556 10.6667 10.5716V6.90488H11.6667C11.8508 6.9048 12 6.75547 11.9999 6.57138C11.9998 6.46805 11.9519 6.37063 11.87 6.30755ZM6.66671 10.2382V8.23822H8.00004V10.2382H6.66671ZM10.3334 6.23822C10.1493 6.23822 10 6.38747 10 6.57155V10.2382H8.66671V7.90488C8.66671 7.7208 8.51746 7.57155 8.33337 7.57155H6.33337C6.14929 7.57155 6.00004 7.7208 6.00004 7.90488V10.2382H4.66671V6.57155C4.66671 6.38747 4.51746 6.23822 4.33337 6.23822H3.98004L7.33337 3.65888L10.6867 6.23822H10.3334Z" fill="#231F20"/>
</svg>
