<svg width="13" height="14" viewBox="0 0 13 14" fill="none" xmlns="http://www.w3.org/2000/svg">
<path d="M5.31456 8.10271C4.08971 6.87786 3.81315 5.65301 3.75075 5.16227C3.73332 5.02658 3.78001 4.89051 3.87709 4.79411L4.8683 3.80334C5.01411 3.65762 5.03998 3.43053 4.93069 3.25574L3.3525 0.805155C3.23159 0.611615 2.98333 0.541764 2.77923 0.643862L0.245677 1.83707C0.0806362 1.91834 -0.0164387 2.0937 0.00229991 2.2767C0.135051 3.53784 0.684862 6.63802 3.7315 9.68489C6.77815 12.7317 9.87789 13.2813 11.1397 13.4141C11.3227 13.4328 11.498 13.3358 11.5793 13.1707L12.7725 10.6372C12.8742 10.4335 12.8049 10.1859 12.6121 10.0648L10.1615 8.48703C9.98685 8.37762 9.75976 8.40331 9.61393 8.54898L8.62317 9.54019C8.52677 9.63726 8.39069 9.68396 8.255 9.66652C7.76427 9.60413 6.53941 9.32757 5.31456 8.10271Z" fill="#FFC600"/>
<path d="M10.1783 7.4428C9.93389 7.4428 9.73577 7.24469 9.73577 7.0003C9.7337 5.16825 8.24904 3.68359 6.41699 3.68152C6.1726 3.68152 5.97449 3.4834 5.97449 3.23901C5.97449 2.99462 6.1726 2.79651 6.41699 2.79651C8.73762 2.79907 10.6182 4.67967 10.6208 7.0003C10.6208 7.24469 10.4227 7.4428 10.1783 7.4428Z" fill="#FFC600"/>
<path d="M12.3908 7.44268C12.1464 7.44268 11.9483 7.24456 11.9483 7.00017C11.9449 3.94673 9.47043 1.47228 6.41699 1.46887C6.1726 1.46887 5.97449 1.27075 5.97449 1.02637C5.97449 0.781978 6.1726 0.583862 6.41699 0.583862C9.959 0.587764 12.8294 3.45816 12.8333 7.00017C12.8333 7.11753 12.7867 7.23008 12.7037 7.31307C12.6207 7.39606 12.5082 7.44268 12.3908 7.44268Z" fill="#FFC600"/>
</svg>
