<svg width="15" height="16" viewBox="0 0 15 16" fill="none" xmlns="http://www.w3.org/2000/svg">
<path d="M14.7243 12.1936L11.3016 9.08156C11.1398 8.93451 10.9272 8.85608 10.7087 8.86284C10.4901 8.86959 10.2828 8.961 10.1304 9.11777L8.11545 11.1899C7.63046 11.0973 6.65542 10.7934 5.65175 9.79221C4.64809 8.7877 4.34412 7.81014 4.25403 7.32851L6.32451 5.31276C6.48147 5.16047 6.57302 4.95308 6.57977 4.73448C6.58653 4.51589 6.50797 4.30324 6.36072 4.14154L3.24952 0.719643C3.10221 0.557437 2.89746 0.459047 2.67877 0.445369C2.46008 0.431691 2.24468 0.503803 2.0783 0.646389L0.251154 2.21335C0.105581 2.35945 0.0186937 2.5539 0.00697343 2.75981C-0.0056566 2.97031 -0.246469 7.95665 3.62 11.8248C6.99306 15.197 11.2182 15.4437 12.3819 15.4437C12.552 15.4437 12.6564 15.4387 12.6842 15.437C12.89 15.4255 13.0844 15.3382 13.2298 15.192L14.7959 13.364C14.939 13.1981 15.0117 12.9829 14.9983 12.7642C14.9849 12.5456 14.8866 12.3408 14.7243 12.1936Z" fill="#F00002"/>
</svg>
