<svg width="49" height="58" viewBox="0 0 49 58" fill="none" xmlns="http://www.w3.org/2000/svg">
<path d="M47.3383 7.72172L24.98 1.0142C24.6673 0.920235 24.3334 0.920235 24.0204 1.0142L1.6619 7.72172C0.955523 7.93357 0.471802 8.58373 0.471802 9.32117V33.9153C0.471802 37.1142 1.76677 40.3888 4.32075 43.6482C6.27144 46.1375 8.97003 48.6371 12.3417 51.0778C18.0058 55.1778 23.5831 57.6929 23.8178 57.7979C24.0348 57.8951 24.2674 57.9437 24.5001 57.9437C24.7327 57.9437 24.9653 57.8952 25.1824 57.7979C25.4171 57.6929 30.9943 55.1778 36.6583 51.0778C40.0299 48.6371 42.7285 46.1375 44.6792 43.6482C47.2332 40.389 48.5281 37.1143 48.5281 33.9153V9.32117C48.5283 8.58373 48.0446 7.93357 47.3383 7.72172ZM45.1884 33.9153C45.1884 39.5766 39.5081 44.8849 34.7429 48.3413C30.4708 51.4399 26.1383 53.6387 24.5002 54.4285C22.8621 53.6387 18.5294 51.4399 14.2573 48.3413C9.49205 44.8849 3.81165 39.5766 3.81165 33.9153V10.5636L24.5001 4.35705L45.1884 10.5636V33.9153Z" fill="#F00002"/>
<path d="M32.0038 26.0714C31.9311 25.9151 31.7743 25.8148 31.6017 25.8148H26.342L31.5329 17.6191C31.6195 17.4824 31.6248 17.3093 31.5467 17.1677C31.4686 17.0256 31.3194 16.9377 31.1578 16.9377H24.0562C23.888 16.9377 23.7344 17.0327 23.659 17.1832L17.0011 30.4988C16.9323 30.636 16.9399 30.7993 17.0207 30.9302C17.1019 31.0611 17.2444 31.141 17.3984 31.141H21.9625L16.9891 42.9529C16.9044 43.1548 16.9798 43.3892 17.1667 43.5037C17.2385 43.5476 17.3184 43.5689 17.3979 43.5689C17.5253 43.5689 17.6509 43.5143 17.7379 43.4114L31.9413 26.5449C32.0526 26.4127 32.0766 26.228 32.0038 26.0714Z" fill="#F00002"/>
</svg>
