<svg width="64" height="71" viewBox="0 0 64 71" fill="none" xmlns="http://www.w3.org/2000/svg">
<mask id="mask0" mask-type="alpha" maskUnits="userSpaceOnUse" x="18" y="0" width="46" height="71">
<path d="M39.5938 27.2609L18.8507 20.9557L27.2576 0.943726L54.58 20.9557L63.8093 35.6678C63.8093 39.1707 62.7127 53.2491 62.7127 62.5333C64.6865 71.3788 30.1817 70.9402 18.8507 70.9402C32.8134 65.7498 38.4972 54.5833 39.5938 49.6488V27.2609Z" fill="white"/>
</mask>
<g mask="url(#mask0)">
<path d="M25.1853 63.8537C25.3153 63.9447 25.4697 63.9935 25.6289 63.9935C26.0596 63.987 26.4024 63.6343 26.3959 63.2037C26.3943 63.0932 26.3683 62.9827 26.3196 62.8787C21.5565 46.9759 28.6288 39.3121 31.653 36.8794C31.3979 47.1449 36.9231 54.8444 37.1912 55.1824C37.3846 55.4457 37.7258 55.5594 38.0411 55.4668C39.6402 54.9842 42.094 53.3932 43.6053 52.3581C43.1828 56.4743 41.4521 62.9161 41.4326 62.9876C41.3221 63.402 41.5658 63.8293 41.9819 63.9415C42.2142 64.0032 42.4613 63.9528 42.653 63.8082C42.991 63.5466 50.9376 57.3177 53.497 46.8442C56.0857 36.2879 48.8364 25.9785 48.552 25.5495C48.305 25.2001 47.8191 25.1156 47.4697 25.361C47.2422 25.5235 47.1187 25.7916 47.143 26.0679C47.4307 31.2973 46.2086 36.5008 43.6215 41.0574C44.0944 38.2867 44.3366 34.2078 43.8702 28.2633C42.679 13.2884 29.0773 6.79147 28.9392 6.72972C28.5491 6.54771 28.0876 6.71672 27.9072 7.10673C27.8455 7.23836 27.8227 7.38787 27.8406 7.5325C28.6288 13.6833 27.1938 16.4004 23.3571 23.6612C21.8035 26.5895 19.8827 30.2362 17.5784 35.1065C9.3621 52.4881 25.0244 63.7448 25.1853 63.8537ZM18.9711 35.7711C21.2608 30.9284 23.1816 27.2997 24.7189 24.3795C28.307 17.5867 29.9581 14.465 29.5242 8.81629C32.797 10.7664 41.3968 16.9448 42.2857 28.3755C43.0837 38.6085 41.769 42.9929 40.9207 44.6959C40.7972 44.9657 40.6379 45.2159 40.4478 45.4418C40.1488 45.749 40.1537 46.2413 40.4608 46.5404C40.7549 46.828 41.2213 46.8361 41.5252 46.5599C45.9113 41.6766 48.4496 35.4103 48.6966 28.8484C50.6369 32.4202 53.6758 39.5071 51.9695 46.5095C50.2859 53.3997 46.025 58.452 43.55 60.9189C44.2391 58.0653 45.2385 53.4761 45.2385 50.8273C45.2385 50.3982 44.8907 50.0489 44.4633 50.0489C44.2959 50.0489 44.1351 50.1009 44.0018 50.2C43.9596 50.2325 40.3747 52.8813 38.1077 53.793C36.8711 51.8933 32.5322 44.4375 33.2878 35.3908C33.3252 34.9651 33.0083 34.5881 32.5809 34.5523C32.4233 34.5377 32.2657 34.5718 32.1291 34.6514C32.0138 34.7229 19.5886 42.0568 24.2476 61.057C20.4937 57.5891 12.934 48.5587 18.9824 35.7711H18.9711Z" fill="#F00002"/>
</g>
<path d="M36.4669 29.0527L19.1609 23.8608C18.9188 23.7881 18.6604 23.7881 18.4181 23.8608L1.11185 29.0527C0.565091 29.2167 0.190674 29.7199 0.190674 30.2907V49.3274C0.190674 51.8035 1.19302 54.3382 3.16989 56.861C4.67979 58.7878 6.7686 60.7226 9.3784 62.6118C13.7626 65.7853 18.0796 67.7321 18.2612 67.8134C18.4293 67.8886 18.6093 67.9263 18.7894 67.9263C18.9694 67.9263 19.1495 67.8887 19.3175 67.8134C19.4992 67.7321 23.8161 65.7853 28.2003 62.6118C30.81 60.7226 32.8988 58.7878 34.4087 56.861C36.3856 54.3382 37.3879 51.8036 37.3879 49.3274V30.2907C37.388 29.7199 37.0137 29.2167 36.4669 29.0527ZM34.8029 49.3274C34.8029 53.7094 30.4061 57.8183 26.7177 60.4937C23.411 62.8921 20.0574 64.594 18.7895 65.2054C17.5216 64.594 14.1679 62.8921 10.8612 60.4937C7.17266 57.8183 2.77583 53.7094 2.77583 49.3274V31.2524L18.7894 26.4483L34.8029 31.2524V49.3274Z" fill="#F00002"/>
<path d="M9.64668 51.0515C9.44297 51.0515 9.27783 51.2167 9.27783 51.4204C9.27783 51.6241 9.44297 51.7892 9.64668 51.7892C10.7911 51.7892 11.7223 50.7392 11.7223 49.4485C11.7223 48.1578 10.7912 47.1078 9.64668 47.1078C8.50216 47.1078 7.57104 48.1578 7.57104 49.4485C7.57104 49.6522 7.73619 49.8173 7.93989 49.8173C8.1436 49.8173 8.30874 49.6522 8.30874 49.4485C8.30874 48.5646 8.90893 47.8455 9.64668 47.8455C10.3844 47.8455 10.9846 48.5646 10.9846 49.4485C10.9846 50.3324 10.3844 51.0515 9.64668 51.0515Z" fill="#F00002"/>
<path d="M13.5661 45.4457C13.7698 45.4457 13.935 45.2805 13.935 45.0768C13.935 44.8731 13.7698 44.708 13.5661 44.708C12.8227 44.708 12.2178 43.9835 12.2178 43.0929C12.2178 42.2024 12.8226 41.4779 13.5661 41.4779C14.3096 41.4779 14.9144 42.2024 14.9144 43.0929C14.9144 43.2966 15.0796 43.4618 15.2833 43.4618C15.487 43.4618 15.6521 43.2966 15.6521 43.0929C15.6521 41.7956 14.7164 40.7402 13.5661 40.7402C12.4158 40.7402 11.4801 41.7956 11.4801 43.0929C11.4801 44.3903 12.4159 45.4457 13.5661 45.4457Z" fill="#F00002"/>
<path d="M27.9324 45.5231H26.6621C27.1372 44.8379 27.3998 43.9883 27.3998 43.0926C27.3998 42.509 27.2901 41.9473 27.0736 41.423C26.9958 41.2347 26.7801 41.1451 26.592 41.2228C26.4037 41.3005 26.3141 41.5162 26.3918 41.7045C26.5712 42.139 26.6622 42.6061 26.6622 43.0926C26.6622 43.4338 26.6169 43.7662 26.5303 44.0804H20.6604C20.4567 44.0804 20.2915 44.2455 20.2915 44.4492C20.2915 44.6529 20.4567 44.8181 20.6604 44.8181H26.2322C26.089 45.0788 25.9123 45.3165 25.7052 45.5231H17.5457C17.5439 45.5231 17.5421 45.5232 17.5403 45.5232C16.9256 45.5242 16.348 45.7094 15.8481 46.0329C16.5623 45.3131 17.0133 44.2619 17.0133 43.093C17.0133 42.9167 17.0031 42.7431 16.9832 42.5728H20.6604C20.8641 42.5728 21.0292 42.4077 21.0292 42.204C21.0292 42.0003 20.8641 41.8351 20.6604 41.8351H16.8318C16.5986 41.0522 16.154 40.3794 15.5757 39.9054H23.9528C24.5502 39.9054 25.117 40.1304 25.592 40.5561C25.7432 40.6917 25.9765 40.6797 26.1128 40.5277C26.2488 40.376 26.2361 40.1428 26.0844 40.0068C25.472 39.4578 24.7349 39.1677 23.9528 39.1677H16.9818L16.6023 38.123C17.395 37.4213 17.9283 36.444 17.568 35.4525C16.8586 33.5002 14.9426 32.9266 14.5657 32.8314C14.3795 32.7844 14.1864 32.8547 14.074 33.0101C13.846 33.3251 12.7448 34.9951 13.4542 36.9475C13.8139 37.9373 14.8481 38.3456 15.9089 38.3748L16.197 39.1678H13.5793C13.5749 39.1678 13.5705 39.1677 13.5661 39.1677C11.6653 39.1677 10.1188 40.9286 10.1188 43.0931C10.1188 44.0099 10.3963 44.8544 10.8606 45.5232H9.6469C9.64508 45.5232 9.64326 45.5233 9.64144 45.5233C9.10961 45.5241 8.59972 45.659 8.12582 45.9243C7.94809 46.0238 7.88464 46.2486 7.98413 46.4263C8.08367 46.6041 8.30843 46.6675 8.48616 46.568C8.85014 46.3642 9.24058 46.2609 9.64661 46.2609C11.1406 46.2609 12.3562 47.6909 12.3562 49.4486C12.3562 51.2064 11.1406 52.6364 9.64661 52.6364C8.15258 52.6364 6.9371 51.2062 6.9371 49.4485C6.9371 48.748 7.12698 48.0833 7.48624 47.526C7.5966 47.3548 7.54727 47.1265 7.37608 47.0161C7.20488 46.9058 6.97659 46.9551 6.86623 47.1263C6.42996 47.8029 6.1994 48.6059 6.1994 49.4485C6.1994 51.6091 7.74025 53.3675 9.63643 53.3739C9.63992 53.374 9.64341 53.374 9.6469 53.374H25.078C25.2817 53.374 25.4468 53.2089 25.4468 53.0052C25.4468 52.8015 25.2817 52.6363 25.078 52.6363H19.555C20.4252 51.9231 20.9928 50.7599 20.9928 49.4485C20.9928 49.1487 20.9631 48.8567 20.907 48.576H27.5982C27.8019 48.576 27.9671 48.4108 27.9671 48.2071C27.9671 48.0034 27.8019 47.8383 27.5982 47.8383H20.6893C20.4385 47.2058 20.0447 46.6621 19.5551 46.2607H27.9324C29.4263 46.2607 30.6417 47.6908 30.6417 49.4485C30.6417 49.8448 30.58 50.2244 30.4671 50.5747H25.938C25.7343 50.5747 25.5692 50.7399 25.5692 50.9436C25.5692 51.1473 25.7343 51.3124 25.938 51.3124H30.1291C29.6366 52.1139 28.8354 52.6363 27.9324 52.6363H26.6609C26.4572 52.6363 26.292 52.8015 26.292 53.0052C26.292 53.2089 26.4572 53.374 26.6609 53.374H27.9324C29.8331 53.374 31.3794 51.613 31.3794 49.4485C31.3794 47.284 29.8331 45.5231 27.9324 45.5231ZM14.1475 36.6954C13.6406 35.3004 14.2697 34.0676 14.5663 33.5988C15.0942 33.7678 16.3678 34.3092 16.8746 35.7044C17.1159 36.3684 16.6774 36.996 16.3268 37.3646L15.3738 34.7414C15.3043 34.55 15.0926 34.4512 14.9012 34.5207C14.7098 34.5903 14.611 34.8019 14.6805 34.9933L15.6334 37.6164C15.1279 37.5588 14.3887 37.359 14.1475 36.6954ZM13.5631 39.9053C13.5641 39.9053 13.5651 39.9053 13.566 39.9053H13.5788C15.067 39.9134 16.2756 41.3403 16.2756 43.093C16.2756 44.8507 15.0601 46.2807 13.5661 46.2807C12.0721 46.2807 10.8565 44.8507 10.8565 43.093C10.8565 41.3364 12.0704 39.9072 13.5631 39.9053ZM13.0939 49.4485C13.0939 48.3268 12.6786 47.3135 12.0139 46.5975C12.4777 46.865 13.0015 47.0165 13.5557 47.0184C13.5591 47.0185 13.5626 47.0185 13.5662 47.0185H14.84C14.3757 47.6874 14.0983 48.5317 14.0983 49.4485C14.0983 50.7599 14.6659 51.9231 15.5361 52.6364H11.6561C12.5263 51.9231 13.0939 50.7599 13.0939 49.4485ZM20.2551 49.4485C20.2551 51.2062 19.0396 52.6362 17.5456 52.6362C16.0515 52.6362 14.836 51.2062 14.836 49.4485C14.836 47.6908 16.0515 46.2608 17.5456 46.2608C19.0396 46.2608 20.2551 47.6908 20.2551 49.4485Z" fill="#F00002"/>
<path d="M17.5457 47.0077C17.342 47.0077 17.1769 47.1728 17.1769 47.3765C17.1769 47.5802 17.342 47.7454 17.5457 47.7454C18.3312 47.7454 18.9703 48.5094 18.9703 49.4485C18.9703 50.3876 18.3312 51.1516 17.5457 51.1516C16.7602 51.1516 16.1212 50.3876 16.1212 49.4485C16.1212 49.2448 15.956 49.0796 15.7523 49.0796C15.5486 49.0796 15.3835 49.2448 15.3835 49.4485C15.3835 50.7943 16.3535 51.8893 17.5457 51.8893C18.738 51.8893 19.708 50.7943 19.708 49.4485C19.708 48.1026 18.738 47.0077 17.5457 47.0077Z" fill="#F00002"/>
<path d="M22.8818 41.8351C22.6781 41.8351 22.5129 42.0002 22.5129 42.2039C22.5129 42.4076 22.6781 42.5728 22.8818 42.5728H24.2779C24.4816 42.5728 24.6467 42.4076 24.6467 42.2039C24.6467 42.0002 24.4816 41.8351 24.2779 41.8351H22.8818Z" fill="#F00002"/>
<path d="M22.2267 50.5747C22.023 50.5747 21.8578 50.7399 21.8578 50.9436C21.8578 51.1473 22.023 51.3124 22.2267 51.3124H23.3789C23.5826 51.3124 23.7477 51.1473 23.7477 50.9436C23.7477 50.7399 23.5826 50.5747 23.3789 50.5747H22.2267Z" fill="#F00002"/>
</svg>
