<svg width="65" height="70" viewBox="0 0 65 70" fill="none" xmlns="http://www.w3.org/2000/svg">
<mask id="mask0" mask-type="alpha" maskUnits="userSpaceOnUse" x="19" y="0" width="46" height="70">
<path d="M39.8364 26.3171L19.0934 20.012L27.5003 -6.10352e-05L54.8227 20.012L64.052 34.724C64.052 38.2269 62.9554 52.3054 62.9554 61.5895C64.9292 70.435 30.4244 69.9964 19.0934 69.9964C33.0561 64.806 38.7399 53.6395 39.8364 48.705V26.3171Z" fill="white"/>
</mask>
<g mask="url(#mask0)">
<path d="M25.4276 62.9099C25.5576 63.0009 25.712 63.0497 25.8712 63.0497C26.3019 63.0432 26.6448 62.6905 26.6383 62.2599C26.6366 62.1494 26.6106 62.0389 26.5619 61.9349C21.7988 46.0321 28.8711 38.3683 31.8953 35.9356C31.6402 46.2011 37.1654 53.9006 37.4335 54.2386C37.6269 54.5019 37.9682 54.6156 38.2834 54.523C39.8825 54.0404 42.3363 52.4494 43.8476 51.4143C43.4251 55.5305 41.6944 61.9723 41.6749 62.0438C41.5644 62.4582 41.8082 62.8856 42.2242 62.9977C42.4566 63.0594 42.7036 63.0091 42.8953 62.8644C43.2333 62.6028 51.1799 56.374 53.7393 45.9005C56.328 35.3441 49.0787 25.0347 48.7943 24.6057C48.5473 24.2563 48.0614 24.1718 47.712 24.4172C47.4845 24.5797 47.361 24.8478 47.3854 25.1241C47.673 30.3535 46.4509 35.557 43.8639 40.1136C44.3367 37.3429 44.5789 33.264 44.1125 27.3196C42.9213 12.3447 29.3196 5.84769 29.1815 5.78593C28.7915 5.60393 28.3299 5.77293 28.1496 6.16295C28.0878 6.29458 28.0651 6.44408 28.0829 6.58871C28.8711 12.7396 27.4362 15.4566 23.5994 22.7174C22.0458 25.6458 20.125 29.2924 17.8207 34.1627C9.60441 51.5443 25.2667 62.8011 25.4276 62.9099ZM19.2134 34.8273C21.5031 29.9847 23.4239 26.3559 24.9612 23.4357C28.5493 16.6429 30.2004 13.5212 29.7665 7.87251C33.0394 9.82258 41.6392 16.001 42.5281 27.4317C43.326 37.6647 42.0113 42.0491 41.163 43.7521C41.0395 44.0219 40.8803 44.2722 40.6901 44.498C40.3911 44.8052 40.396 45.2976 40.7031 45.5966C40.9973 45.8842 41.4636 45.8923 41.7675 45.6161C46.1536 40.7328 48.6919 34.4666 48.9389 27.9046C50.8792 31.4765 53.9181 38.5633 52.2118 45.5657C50.5282 52.4559 46.2673 57.5082 43.7924 59.9751C44.4814 57.1215 45.4808 52.5323 45.4808 49.8835C45.4808 49.4545 45.133 49.1051 44.7056 49.1051C44.5383 49.1051 44.3774 49.1571 44.2441 49.2562C44.2019 49.2887 40.617 51.9375 38.35 52.8492C37.1134 50.9495 32.7745 43.4938 33.5301 34.4471C33.5675 34.0213 33.2506 33.6443 32.8232 33.6085C32.6656 33.5939 32.508 33.628 32.3715 33.7077C32.2561 33.7792 19.8309 41.113 24.4899 60.1132C20.736 56.6453 13.1763 47.6149 19.2247 34.8273H19.2134Z" fill="#F00002"/>
</g>
<path d="M36.7096 28.1089L19.4036 22.917C19.1615 22.8443 18.9031 22.8443 18.6608 22.917L1.35453 28.1089C0.807766 28.2729 0.43335 28.7761 0.43335 29.3469V48.3836C0.43335 50.8597 1.4357 53.3944 3.41257 55.9172C4.92247 57.844 7.01128 59.7788 9.62108 61.668C14.0052 64.8415 18.3223 66.7883 18.5039 66.8696C18.672 66.9448 18.852 66.9825 19.0321 66.9825C19.2121 66.9825 19.3922 66.9449 19.5602 66.8696C19.7419 66.7883 24.0588 64.8415 28.443 61.668C31.0527 59.7788 33.1415 57.844 34.6514 55.9172C36.6283 53.3945 37.6306 50.8598 37.6306 48.3836V29.3469C37.6307 28.7761 37.2564 28.2729 36.7096 28.1089ZM35.0456 48.3836C35.0456 52.7657 30.6488 56.8745 26.9604 59.5499C23.6536 61.9483 20.3001 63.6502 19.0322 64.2616C17.7642 63.6502 14.4106 61.9483 11.1038 59.5499C7.41534 56.8745 3.0185 52.7657 3.0185 48.3836V30.3086L19.0321 25.5045L35.0456 30.3086V48.3836Z" fill="#F00002"/>
<path d="M29.5728 44.5559L28.9089 44.1847H29.1234C29.4993 44.1847 29.8039 43.88 29.8039 43.5041C29.8039 43.4997 29.8038 39.1284 29.8038 39.1333C29.8033 38.8922 29.6743 38.6636 29.4564 38.5413L19.365 32.8786C19.1479 32.7568 19.3925 32.7915 14.6627 32.7915C14.2879 32.7915 13.9825 33.0951 13.9822 33.4715C13.9821 33.5395 13.9821 37.0963 13.9821 37.1617H11.8016C11.426 37.1617 11.1211 37.4665 11.1211 37.8423V41.532H8.8233C8.44643 41.532 8.14306 41.8378 8.14272 42.2121C8.14268 42.2498 8.14272 46.5561 8.14272 46.5818C8.14272 46.8283 8.27598 47.0555 8.49118 47.1758L21.5609 54.4834C21.7773 54.6044 21.5263 54.57 26.2623 54.57C26.6382 54.57 26.9429 54.2652 26.9429 53.8894V50.1998H29.2406C29.6165 50.1998 29.9212 49.895 29.9212 49.5192C29.9212 48.6518 29.9212 46.4342 29.9212 45.1499C29.9212 44.9052 29.7893 44.677 29.5728 44.5559ZM18.8541 34.1527L26.5199 38.4543H24.9321L17.2663 34.1527H18.8541ZM28.4428 39.8154V42.8235H26.4745L25.4347 42.2422V39.8154H28.4428ZM15.3433 34.6344L24.0736 39.5334V41.4811C15.787 36.8479 16.4242 37.1617 16.1709 37.1617H15.3433V34.6344ZM15.9936 38.5229L26.6289 44.4693H25.0487L14.4134 38.5229H15.9936ZM22.0705 48.8396C21.6353 48.5963 11.8129 43.1044 11.4351 42.8931H13.0153L23.6506 48.8396H22.0705ZM12.4822 39.0026C13.1126 39.3551 23.6785 45.2627 24.1908 45.5492V47.5822L13.5247 41.6185C13.3286 41.5089 13.2347 41.532 12.4822 41.532V39.0026ZM9.50388 46.1826V43.3728L21.2125 49.9194V52.7292L9.50388 46.1826ZM25.5818 53.2089H22.5737V50.2007H25.5818V53.2089ZM28.5601 48.8386H26.438L25.552 48.3432V45.8305H28.5601V48.8386H28.5601Z" fill="#F00002"/>
</svg>
