<svg width="48" height="58" viewBox="0 0 48 58" fill="none" xmlns="http://www.w3.org/2000/svg">
<path d="M23.9999 31.4736C27.8107 31.4736 36.7702 26.8875 36.7702 15.8984C36.7702 14.3656 36.7329 12.8849 36.6066 11.4859C36.3992 8.73248 35.8353 6.29233 34.4312 4.42226C32.6301 1.87739 29.4792 0.323547 23.9999 0.323547C18.5216 0.323547 15.3708 1.87675 13.5697 4.42084C12.1647 6.29138 11.6005 8.73216 11.3932 11.4865C11.267 12.8854 11.2297 14.3659 11.2297 15.8986C11.2296 26.8875 20.1891 31.4736 23.9999 31.4736ZM28.1683 6.02949C27.7964 6.9695 27.61 7.43958 27.2379 8.37944C24.8355 7.70069 23.164 7.70069 20.7616 8.37944C20.3896 7.43958 20.2032 6.9695 19.8311 6.02949C22.8356 5.11996 25.1642 5.12012 28.1683 6.02949ZM13.1293 13.5158C13.2766 13.8375 13.9016 15.0748 14.8691 15.1908C15.9813 15.3242 17.8274 11.2521 23.9999 11.2421C30.1723 11.2521 32.0185 15.3242 33.1307 15.1908C34.0982 15.0747 34.7232 13.8375 34.8705 13.5158C34.9003 14.3043 34.9114 15.1026 34.9114 15.8986C34.9114 21.27 32.5396 24.5982 30.5498 26.4442C28.0429 28.7705 25.2593 29.6148 24.0001 29.6148C22.7408 29.6148 19.9573 28.7705 17.4503 26.4442C15.4603 24.5982 13.0888 21.27 13.0888 15.8986C13.0886 15.1026 13.0995 14.3043 13.1293 13.5158Z" fill="#F00002"/>
<path d="M47.7082 47.4469C47.0562 43.393 45.7141 38.1709 43.0219 36.3152C41.1833 35.0474 34.7689 31.6205 32.0297 30.1572L31.9834 30.1326C31.6704 29.9653 31.2879 29.9989 31.009 30.218C29.5741 31.3444 28.0024 32.1036 26.3375 32.4743C26.0434 32.5398 25.8019 32.7488 25.6953 33.0305L23.9999 37.4993L22.3044 33.0305C22.1977 32.7488 21.9564 32.5398 21.6621 32.4743C19.9974 32.1036 18.4257 31.3444 16.9909 30.218C16.7114 29.9988 16.3293 29.9653 16.0162 30.1326C13.3097 31.5788 6.81683 35.0757 4.98609 36.3098C1.88679 38.3976 0.531816 45.9535 0.291561 47.447C0.267867 47.5952 0.28161 47.7467 0.331524 47.8882C0.397235 48.0737 1.42223 50.7286 6.5483 52.8633C6.84384 52.4908 7.23748 52.2084 7.68023 52.0495C7.13022 51.8542 6.65287 51.4715 6.34754 50.9578C5.89262 50.1924 5.87571 49.2318 6.30236 48.4529C7.61658 46.0472 10.1335 44.5504 12.8741 44.5468C15.4232 44.5468 17.734 45.8134 19.1062 47.8723H28.8879C29.1564 47.4712 29.4645 47.0961 29.8101 46.7493C31.2238 45.3315 33.1046 44.5493 35.1063 44.5464H35.1079H35.1094C37.8478 44.5464 40.3679 46.035 41.6867 48.4325C42.1141 49.2106 42.0997 50.1693 41.6475 50.9373C41.3439 51.4511 40.8678 51.8351 40.3184 52.0321C40.7689 52.1916 41.1687 52.4783 41.4665 52.8573C46.5794 50.7237 47.6029 48.0737 47.6686 47.8885C47.7183 47.7465 47.7321 47.5949 47.7082 47.4469Z" fill="#F00002"/>
<path d="M39.4775 54.098H39.4769L34.764 54.1045C34.6804 53.9061 34.5199 53.3552 34.5184 52.0408C34.5162 50.7263 34.6747 50.1743 34.7582 49.9755L39.4697 49.9685C39.5824 49.9679 39.6863 49.9087 39.7433 49.8118C39.8007 49.7147 39.8022 49.5953 39.7482 49.4967C38.8186 47.8069 37.0448 46.7574 35.1091 46.7574C33.6979 46.7594 32.3723 47.311 31.3761 48.3103C30.8627 48.8249 30.471 49.4277 30.2099 50.0834H17.7836C17.0034 48.1381 15.0996 46.7579 12.8739 46.7579C10.9442 46.7605 9.16965 47.816 8.2429 49.5128C8.18888 49.6114 8.19109 49.7313 8.24843 49.8278C8.30577 49.9243 8.40971 49.9832 8.52202 49.9832H8.52233L13.2352 49.9758C13.3191 50.1742 13.4792 50.7251 13.4808 52.04C13.483 53.3547 13.3244 53.9063 13.241 54.1048L8.52944 54.1119C8.41713 54.1121 8.3132 54.1718 8.25586 54.2683C8.19883 54.3651 8.19694 54.485 8.25128 54.5836C9.18055 56.2733 10.9551 57.3236 12.8823 57.3236H12.89C14.3016 57.3213 15.6268 56.7697 16.6234 55.7703C17.1368 55.2554 17.5283 54.6525 17.7893 53.9968H30.2153C30.9956 55.9427 32.898 57.3228 35.1181 57.3231C35.1181 57.3231 35.1252 57.3231 35.1256 57.3231C37.055 57.3204 38.8299 56.2643 39.7566 54.5686C39.8106 54.4699 39.8084 54.3498 39.7511 54.2535C39.6937 54.157 39.5898 54.098 39.4775 54.098Z" fill="#F00002"/>
</svg>
