<svg width="65" height="58" viewBox="0 0 65 58" fill="none" xmlns="http://www.w3.org/2000/svg">
<path d="M54.9823 44.9006C54.6213 44.5398 54.0363 44.5398 53.6752 44.9006C53.3143 45.2616 53.3143 45.8466 53.6752 46.2077L56.7117 49.2442C56.9744 49.5191 57.1305 50.0857 56.7117 50.551L53.8133 53.4495C53.4528 53.8098 52.8664 53.8098 52.5064 53.4495L43.8354 44.7786C44.6394 44.1972 45.4 43.5516 46.1069 42.8448C46.8222 42.1295 47.4669 41.3698 48.0429 40.5755L50.7241 43.2567C50.9046 43.4371 51.1412 43.5274 51.3776 43.5274C51.6141 43.5274 51.8507 43.4371 52.0311 43.2567C52.392 42.8957 52.392 42.3107 52.0311 41.9496L49.0732 38.9918C53.259 31.7859 52.271 22.3767 46.1068 16.2124C38.7642 8.86968 26.817 8.86992 19.4745 16.2124C15.9882 19.6987 14.03 24.333 13.9607 29.2618C13.8913 34.1803 15.7078 38.8581 19.0752 42.4332C19.4254 42.8046 20.0101 42.8219 20.3817 42.4723C20.7532 42.1222 20.7707 41.5375 20.4207 41.1658C14.0873 34.4417 14.2457 24.0548 20.7815 17.5193C27.4035 10.8973 38.1781 10.8973 44.7997 17.5193C51.4215 24.1412 51.4215 34.9157 44.7997 41.5375C39.2251 47.1121 30.3543 48.0986 23.707 43.8831C23.2761 43.6099 22.7052 43.7375 22.4316 44.1686C22.1584 44.5997 22.2861 45.1706 22.7171 45.4441C25.7233 47.3503 29.2451 48.3591 32.8068 48.3591C33.4576 48.3591 34.1098 48.3253 34.7604 48.2575C37.4099 47.9803 39.9655 47.1354 42.2509 45.8082L51.199 54.7562C51.7395 55.2966 52.4494 55.5669 53.1594 55.5668C53.8693 55.5668 54.5794 55.2965 55.1199 54.7562L58.0184 51.8577C59.0994 50.7767 59.0994 49.0179 58.0184 47.9368L54.9823 44.9006Z" fill="#F00002"/>
<path d="M38.9942 24.2402C39.1996 23.773 38.9875 23.2278 38.5203 23.0222C36.5851 22.1711 34.6624 21.7395 32.8058 21.7395C27.4185 21.7395 22.8135 25.3474 20.548 27.4982C19.97 28.0468 19.6387 28.819 19.6387 29.6166C19.6387 30.4142 19.97 31.1862 20.548 31.7349C22.8135 33.8856 27.4185 37.4936 32.8058 37.4936C38.1932 37.4936 42.7982 33.8857 45.0638 31.7349C45.6418 31.1863 45.9731 30.4142 45.9731 29.6166C45.9731 28.819 45.6418 28.047 45.0637 27.4982C44.2527 26.7283 43.3958 26.0106 42.5166 25.3648C42.1055 25.0627 41.5269 25.1512 41.2247 25.5626C40.9225 25.9739 41.0111 26.5524 41.4225 26.8546C42.2393 27.4546 43.0363 28.1221 43.7912 28.8387C44.0065 29.0429 44.1249 29.3192 44.1249 29.6164C44.1249 29.9137 44.0065 30.1901 43.7912 30.3942C41.7255 32.3553 37.5515 35.645 32.8058 35.645C28.0605 35.645 23.8863 32.3553 21.8206 30.3942C21.6054 30.19 21.4869 29.9137 21.4869 29.6164C21.4869 29.3192 21.6054 29.0428 21.8206 28.8387C23.8863 26.8776 28.0603 23.5879 32.8058 23.5879C34.4047 23.5879 36.077 23.9668 37.7761 24.7141C38.2434 24.9198 38.7888 24.7076 38.9942 24.2402Z" fill="#F00002"/>
<path d="M28.2708 29.6164C28.2708 32.117 30.3052 34.1515 32.8059 34.1515C35.3066 34.1515 37.3411 32.117 37.3411 29.6164C37.3411 27.1157 35.3066 25.0812 32.8059 25.0812C30.3052 25.0812 28.2708 27.1157 28.2708 29.6164ZM35.4928 29.6164C35.4928 31.0979 34.2875 32.3032 32.806 32.3032C31.3245 32.3032 30.1192 31.0979 30.1192 29.6164C30.1192 28.1349 31.3245 26.9295 32.806 26.9295C34.2874 26.9295 35.4928 28.1349 35.4928 29.6164Z" fill="#F00002"/>
<path d="M48.7892 12.9853C49.0257 12.9853 49.2622 12.895 49.4427 12.7147L53.4752 8.68201L55.2162 10.4231C55.7535 10.9599 56.6274 10.9599 57.1653 10.423L62.0556 5.53259V6.77329C62.0556 7.28376 62.4693 7.6974 62.9797 7.6974C63.4902 7.6974 63.9039 7.28376 63.9039 6.77329V3.34929C63.9039 2.83882 63.4902 2.42517 62.9797 2.42517H59.5557C59.0453 2.42517 58.6316 2.83882 58.6316 3.34929C58.6316 3.85976 59.0453 4.27341 59.5557 4.27341H60.7005L56.1906 8.78351L54.4496 7.04244C53.9121 6.50524 53.0379 6.50536 52.5006 7.04256L48.1356 11.4076C47.7746 11.7686 47.7746 12.3536 48.1356 12.7147C48.3161 12.895 48.5527 12.9853 48.7892 12.9853Z" fill="#F00002"/>
<path d="M5.83999 10.4617C8.46403 10.4617 10.599 8.32683 10.599 5.70266C10.599 3.07849 8.46403 0.943604 5.83999 0.943604C3.21594 0.943604 1.08093 3.07849 1.08093 5.70266C1.08093 8.32683 3.21582 10.4617 5.83999 10.4617ZM5.83999 2.79197C7.44494 2.79197 8.75068 4.09771 8.75068 5.70266C8.75068 7.30761 7.44494 8.61335 5.83999 8.61335C4.23503 8.61335 2.92917 7.30761 2.92917 5.70266C2.92917 4.09771 4.23491 2.79197 5.83999 2.79197Z" fill="#F00002"/>
<path d="M5.98122 13.6299C3.35718 13.6299 1.22217 15.7648 1.22217 18.3889C1.22217 21.0131 3.35705 23.148 5.98122 23.148C8.60539 23.148 10.7403 21.0131 10.7403 18.3889C10.7403 15.7648 8.60539 13.6299 5.98122 13.6299ZM5.98122 21.2996C4.37627 21.2996 3.07053 19.9939 3.07053 18.3889C3.07053 16.784 4.37627 15.4782 5.98122 15.4782C7.58617 15.4782 8.89191 16.784 8.89191 18.3889C8.89204 19.9939 7.5863 21.2996 5.98122 21.2996Z" fill="#F00002"/>
<path d="M5.98122 26.1677C3.35718 26.1677 1.22217 28.3026 1.22217 30.9268C1.22217 33.5509 3.35705 35.6858 5.98122 35.6858C8.60539 35.6858 10.7403 33.5509 10.7403 30.9268C10.7403 28.3026 8.60539 26.1677 5.98122 26.1677ZM5.98122 33.8375C4.37627 33.8375 3.07053 32.5317 3.07053 30.9268C3.07053 29.3218 4.37627 28.0161 5.98122 28.0161C7.58617 28.0161 8.89191 29.3218 8.89191 30.9268C8.89204 32.5317 7.5863 33.8375 5.98122 33.8375Z" fill="#F00002"/>
<path d="M14.3537 4.26682H22.5324C23.0429 4.26682 23.4565 3.85317 23.4565 3.3427C23.4565 2.83223 23.0429 2.41858 22.5324 2.41858H14.3537C13.8432 2.41858 13.4296 2.83223 13.4296 3.3427C13.4296 3.85317 13.8433 4.26682 14.3537 4.26682Z" fill="#F00002"/>
<path d="M14.3537 8.20517H18.4431C18.9536 8.20517 19.3672 7.79152 19.3672 7.28105C19.3672 6.77058 18.9536 6.35693 18.4431 6.35693H14.3537C13.8432 6.35693 13.4296 6.77058 13.4296 7.28105C13.4296 7.7914 13.8433 8.20517 14.3537 8.20517Z" fill="#F00002"/>
<path d="M63.1106 15.4962H58.5977C58.0872 15.4962 57.6736 15.9099 57.6736 16.4203C57.6736 16.9308 58.0872 17.3445 58.5977 17.3445H63.1106C63.6211 17.3445 64.0348 16.9308 64.0348 16.4203C64.0348 15.9099 63.6211 15.4962 63.1106 15.4962Z" fill="#F00002"/>
<path d="M55.1706 17.4708C55.7376 17.4708 56.1971 17.0112 56.1971 16.4443C56.1971 15.8774 55.7376 15.4178 55.1706 15.4178C54.6037 15.4178 54.1442 15.8774 54.1442 16.4443C54.1442 17.0112 54.6037 17.4708 55.1706 17.4708Z" fill="#F00002"/>
<path d="M63.1106 19.2633H58.5977C58.0872 19.2633 57.6736 19.677 57.6736 20.1874C57.6736 20.6979 58.0872 21.1115 58.5977 21.1115H63.1106C63.6211 21.1115 64.0348 20.6979 64.0348 20.1874C64.0348 19.677 63.6211 19.2633 63.1106 19.2633Z" fill="#F00002"/>
<path d="M55.1706 21.2379C55.7376 21.2379 56.1971 20.7783 56.1971 20.2114C56.1971 19.6445 55.7376 19.1849 55.1706 19.1849C54.6037 19.1849 54.1442 19.6445 54.1442 20.2114C54.1442 20.7783 54.6037 21.2379 55.1706 21.2379Z" fill="#F00002"/>
<path d="M38.6822 52.2018H34.1692C33.6588 52.2018 33.2451 52.6154 33.2451 53.1259C33.2451 53.6364 33.6588 54.05 34.1692 54.05H38.6822C39.1926 54.05 39.6063 53.6364 39.6063 53.1259C39.6063 52.6156 39.1926 52.2018 38.6822 52.2018Z" fill="#F00002"/>
<path d="M30.7421 52.1234C30.1752 52.1234 29.7156 52.583 29.7156 53.1499C29.7156 53.7168 30.1752 54.1764 30.7421 54.1764C31.3089 54.1764 31.7685 53.7168 31.7685 53.1499C31.7685 52.583 31.3089 52.1234 30.7421 52.1234Z" fill="#F00002"/>
<path d="M38.6822 55.969H34.1692C33.6588 55.969 33.2451 56.3826 33.2451 56.8931C33.2451 57.4036 33.6588 57.8172 34.1692 57.8172H38.6822C39.1926 57.8172 39.6063 57.4036 39.6063 56.8931C39.6063 56.3826 39.1926 55.969 38.6822 55.969Z" fill="#F00002"/>
<path d="M30.7421 57.9436C31.309 57.9436 31.7685 57.484 31.7685 56.9171C31.7685 56.3502 31.309 55.8906 30.7421 55.8906C30.1751 55.8906 29.7156 56.3502 29.7156 56.9171C29.7156 57.484 30.1751 57.9436 30.7421 57.9436Z" fill="#F00002"/>
<path d="M63.1106 23.0382H58.5977C58.0872 23.0382 57.6736 23.4519 57.6736 23.9623C57.6736 24.4728 58.0872 24.8864 58.5977 24.8864H63.1106C63.6211 24.8864 64.0348 24.4728 64.0348 23.9623C64.0348 23.4519 63.6211 23.0382 63.1106 23.0382Z" fill="#F00002"/>
<path d="M63.1106 26.8054H58.5977C58.0872 26.8054 57.6736 27.2191 57.6736 27.7295C57.6736 28.24 58.0872 28.6537 58.5977 28.6537H63.1106C63.6211 28.6537 64.0348 28.24 64.0348 27.7295C64.0348 27.2191 63.6211 26.8054 63.1106 26.8054Z" fill="#F00002"/>
<path d="M55.1706 28.78C55.7376 28.78 56.1971 28.3204 56.1971 27.7535C56.1971 27.1866 55.7376 26.7271 55.1706 26.7271C54.6037 26.7271 54.1442 27.1866 54.1442 27.7535C54.1442 28.3204 54.6037 28.78 55.1706 28.78Z" fill="#F00002"/>
<path d="M63.1106 30.5726H58.5977C58.0872 30.5726 57.6736 30.9863 57.6736 31.4967C57.6736 32.0072 58.0872 32.4209 58.5977 32.4209H63.1106C63.6211 32.4209 64.0348 32.0072 64.0348 31.4967C64.0348 30.9863 63.6211 30.5726 63.1106 30.5726Z" fill="#F00002"/>
<path d="M63.1106 34.3396H58.5977C58.0872 34.3396 57.6736 34.7532 57.6736 35.2637C57.6736 35.7742 58.0872 36.1878 58.5977 36.1878H63.1106C63.6211 36.1878 64.0348 35.7742 64.0348 35.2637C64.0348 34.7534 63.6211 34.3396 63.1106 34.3396Z" fill="#F00002"/>
<path d="M55.1706 34.2612C54.6038 34.2612 54.1442 34.7208 54.1442 35.2877C54.1442 35.8546 54.6038 36.3142 55.1706 36.3142C55.7375 36.3142 56.1971 35.8546 56.1971 35.2877C56.1971 34.7208 55.7375 34.2612 55.1706 34.2612Z" fill="#F00002"/>
<path d="M25.9057 55.9758H22.4478V50.692C22.4478 49.9106 21.8121 49.2749 21.0307 49.2749H17.6789C16.8976 49.2749 16.2618 49.9106 16.2618 50.692V55.9758H14.9441V47.3838C14.9441 46.6024 14.3084 45.9667 13.527 45.9667H10.1752C9.39389 45.9667 8.75814 46.6024 8.75814 47.3838V55.9758H7.62017V53.0551C7.62017 52.2738 6.98443 51.638 6.20308 51.638H2.85127C2.06992 51.638 1.43417 52.2738 1.43417 53.0551V56.0961C1.1543 56.2548 0.965088 56.555 0.965088 56.8999C0.965088 57.4104 1.37874 57.824 1.88921 57.824H25.9057C26.4162 57.824 26.8298 57.4104 26.8298 56.8999C26.8298 56.3894 26.4162 55.9758 25.9057 55.9758ZM18.1102 51.1232H20.5995V55.9758H18.1102V51.1232ZM10.6066 47.815H13.0959V55.9758H10.6066V47.815ZM3.28253 53.4863H5.77194V55.9757H3.28253V53.4863Z" fill="#F00002"/>
</svg>
